<?xml version="1.0" encoding="UTF-8"?>
<svg version="1.1" xmlns="http://www.w3.org/2000/svg" width="500" height="500">
<path d="M0 0 C1.13626957 -0.00623996 2.27253914 -0.01247993 3.44324112 -0.01890898 C7.24720312 -0.034852 11.05052553 -0.02222882 14.85449219 -0.00964355 C17.58306193 -0.01286382 20.3116046 -0.02204174 23.04016113 -0.03088379 C29.67978364 -0.04865548 36.31922512 -0.04483512 42.95885468 -0.03323323 C48.35576359 -0.02419383 53.75262182 -0.02297709 59.14953613 -0.02732849 C59.91811707 -0.02794142 60.686698 -0.02855436 61.47856927 -0.02918586 C63.04000443 -0.03046478 64.60143957 -0.03176164 66.1628747 -0.03307623 C80.79900293 -0.04447806 95.43503089 -0.03137456 110.07114267 -0.00987476 C122.62527814 0.00799588 135.17926564 0.00489166 147.73339844 -0.0135498 C162.31771658 -0.03496354 176.90194687 -0.04337946 191.48627853 -0.03110075 C193.04191842 -0.02982657 194.59755833 -0.02856909 196.15319824 -0.02732849 C196.918571 -0.02671139 197.68394375 -0.02609429 198.47250962 -0.02545848 C203.86194358 -0.02200709 209.25132175 -0.02782938 214.64074707 -0.0372467 C221.21011967 -0.04847368 227.77930114 -0.0454121 234.34865189 -0.02412373 C237.69953978 -0.01362229 241.0498458 -0.01163394 244.40077209 -0.02272034 C248.0350781 -0.03363644 251.66848574 -0.01995792 255.30273438 0 C256.35925327 -0.00892289 257.41577217 -0.01784577 258.50430679 -0.02703905 C264.75129864 0.03958877 268.68663927 0.5799333 273.65136719 4.50793457 C278.89128458 10.77072802 278.21136546 17.65572894 278.15257263 25.49385071 C278.1564678 26.9282013 278.16210998 28.36254803 278.16934353 29.79688567 C278.18408588 33.72964969 278.17392431 37.66201282 278.15960681 41.59476388 C278.1484936 45.83960881 278.16044092 50.08439767 278.16944885 54.32923889 C278.18338202 62.64227419 278.17582405 70.95515759 278.16077327 79.26818565 C278.1439084 88.95217753 278.14712416 98.63613162 278.15086735 108.32013365 C278.15674632 125.6028981 278.14257418 142.88558971 278.11791992 160.16833496 C278.09401022 176.93105807 278.08691129 193.6936838 278.09741211 210.4564209 C278.10882871 228.71372032 278.11074133 246.97097469 278.09631401 265.22827357 C278.0947882 267.17631352 278.09326784 269.12435346 278.09175301 271.07239342 C278.09099519 272.03083176 278.09023738 272.98927009 278.0894566 273.97675202 C278.08471864 280.72331139 278.08656183 287.46985062 278.09081841 294.21640968 C278.09575194 302.44317763 278.08973043 310.6698536 278.06992411 318.89660052 C278.06007094 323.09225923 278.05492553 327.2877781 278.06281662 331.48344421 C278.06989987 335.32835636 278.06300738 339.17298699 278.04521299 343.01786216 C278.04118546 344.40476114 278.04213974 345.79168598 278.04873186 347.17857514 C278.11427053 362.26460558 274.41435173 375.23855395 263.87792969 386.40637207 C255.228954 394.56979123 244.11123641 400.50673838 232.00976562 400.70080566 C230.6374881 400.72490005 230.6374881 400.72490005 229.23748779 400.7494812 C225.06116726 400.79422352 220.88500056 400.83499202 216.70849609 400.85803223 C214.51079714 400.87458068 212.31315177 400.90185584 210.11572266 400.94006348 C206.93461399 400.9950338 203.75476284 401.01673711 200.57324219 401.03137207 C199.59901306 401.05404144 198.62478394 401.07671082 197.62103271 401.10006714 C191.28925504 401.08060992 186.25724461 400.11981319 181.65136719 395.50793457 C177.59467638 389.69794479 177.07897 385.37074289 177.15257263 378.38087463 C177.1444958 376.87353914 177.1444958 376.87353914 177.1362558 375.33575243 C177.12300586 371.97631135 177.13811987 368.61760366 177.15307617 365.25817871 C177.14925238 362.84650843 177.14363283 360.43484042 177.13635254 358.0231781 C177.12440328 352.83345226 177.12441222 347.64387199 177.13494682 342.45414925 C177.14991146 334.94204643 177.13995299 327.43013199 177.12342764 319.91803985 C177.0969848 307.7176123 177.08610702 295.5172271 177.0871582 283.31677246 C177.08724569 282.2223211 177.08724569 282.2223211 177.08733494 281.10575961 C177.08760078 278.14952506 177.08791806 275.19329053 177.0882982 272.23705599 C177.08926434 264.10119268 177.08793664 255.96533065 177.08520508 247.82946777 C177.08496519 247.10102915 177.08472529 246.37259053 177.08447813 245.62207801 C177.08006846 233.46738358 177.06382328 221.31272842 177.03998429 209.15805715 C177.02592984 201.66676112 177.02301907 194.17561454 177.03460718 186.68431341 C177.04280889 180.94267309 177.03606403 175.20112725 177.02391815 169.45949745 C177.02151151 167.1069051 177.02424908 164.75430098 177.03252602 162.40172195 C177.04315504 159.188288 177.03538925 155.97539478 177.0231781 152.76197815 C177.03075416 151.83288244 177.03833021 150.90378673 177.04613584 149.9465366 C176.98977301 142.94304373 175.87568051 137.36776598 171.46386719 131.69543457 C163.60935766 125.5863716 155.25295524 126.06233336 145.71386719 126.10949707 C144.26472833 126.1074722 142.81559048 126.10455734 141.36645508 126.10079956 C138.34055812 126.09639558 135.31492822 126.10274455 132.2890625 126.11682129 C128.42913042 126.13391234 124.56982433 126.12406072 120.70991516 126.1061039 C117.72085943 126.09521356 114.73194977 126.0987363 111.7428894 126.10648727 C110.32046432 126.10847482 108.89802555 126.10608137 107.47561646 126.09904861 C94.8366777 126.03594809 94.8366777 126.03594809 83.83886719 131.69543457 C79.0173808 137.8944885 78.20862189 144.05784275 78.27282715 151.64083862 C78.26603195 152.96970453 78.26603195 152.96970453 78.25909948 154.32541621 C78.24752782 157.27621897 78.25710137 160.22656384 78.26660156 163.17736816 C78.26249402 165.30022981 78.25703207 167.4230892 78.25032043 169.54594421 C78.23861187 174.10921152 78.23610529 178.67235793 78.24067688 183.23563766 C78.24749555 190.45574852 78.23160277 197.67570077 78.21228027 204.89578247 C78.17444469 220.22482464 78.16162928 235.55385287 78.15136719 250.88293457 C78.1402887 267.42608454 78.12490451 283.96916129 78.08065462 300.51226103 C78.06232447 307.68489868 78.0583968 314.85735454 78.0655899 322.03000998 C78.06711476 326.49807553 78.05630886 330.96605062 78.04221153 335.43409157 C78.03821848 337.50041805 78.03931745 339.56676185 78.04598427 341.63308144 C78.05440984 344.46262837 78.04432523 347.29155332 78.02990723 350.12106323 C78.04024813 351.33568884 78.04024813 351.33568884 78.05079794 352.57485235 C77.92541573 365.28168985 72.53774175 377.22761996 63.87792969 386.40637207 C55.228954 394.56979123 44.11123641 400.50673838 32.00976562 400.70080566 C30.6374881 400.72490005 30.6374881 400.72490005 29.23748779 400.7494812 C25.06116726 400.79422352 20.88500056 400.83499202 16.70849609 400.85803223 C14.51079714 400.87458068 12.31315177 400.90185584 10.11572266 400.94006348 C6.93461399 400.9950338 3.75476284 401.01673711 0.57324219 401.03137207 C-0.40098694 401.05404144 -1.37521606 401.07671082 -2.37896729 401.10006714 C-8.71074496 401.08060992 -13.74275539 400.11981319 -18.34863281 395.50793457 C-23.58013174 388.79690005 -22.90880208 381.52315816 -22.85656738 373.40087891 C-22.86117834 371.8447707 -22.86753257 370.28866684 -22.87547636 368.73257208 C-22.8921662 364.46338964 -22.88392496 360.19456511 -22.87153149 355.92538142 C-22.86248189 351.31862262 -22.87645027 346.7119254 -22.88745117 342.10517883 C-22.90524194 333.08328837 -22.90139392 324.06153099 -22.88980061 315.0396353 C-22.88076876 307.7076614 -22.87954121 300.37572481 -22.88389587 293.04374695 C-22.88450881 292.00040525 -22.88512174 290.95706355 -22.88575324 289.88210544 C-22.88703214 287.76260729 -22.88832899 285.64310914 -22.88964361 283.52361101 C-22.90105104 263.64691584 -22.88793313 243.77029444 -22.86644214 223.89361137 C-22.84857102 206.83679283 -22.85167508 189.78008318 -22.87011719 172.7232666 C-22.891521 152.91792142 -22.89995239 133.11264092 -22.88766813 113.30728579 C-22.88639393 111.1955646 -22.88513645 109.0838434 -22.88389587 106.97212219 C-22.88327877 105.93310252 -22.88266167 104.89408285 -22.88202587 103.82357773 C-22.8785715 96.50001972 -22.88440318 89.17650271 -22.89381409 81.85295105 C-22.90503 72.92852859 -22.90200257 64.00424687 -22.88069111 55.07984054 C-22.87017524 50.52604671 -22.86606803 45.97248757 -22.87928772 41.41869545 C-22.89120632 37.25005804 -22.88465801 33.08187288 -22.86337751 28.91327649 C-22.85890918 27.40530034 -22.86118297 25.89728598 -22.87088066 24.38933438 C-22.95701757 9.88265162 -22.95701757 9.88265162 -18.34863281 4.50793457 C-12.51161091 -0.11020963 -7.2557971 -0.06127922 0 0 Z " fill="#999999" transform="translate(122.3486328125,49.4920654296875)"/>
<path d="M0 0 C1.13626957 -0.00623996 2.27253914 -0.01247993 3.44324112 -0.01890898 C7.24720312 -0.034852 11.05052553 -0.02222882 14.85449219 -0.00964355 C17.58306193 -0.01286382 20.3116046 -0.02204174 23.04016113 -0.03088379 C29.67978364 -0.04865548 36.31922512 -0.04483512 42.95885468 -0.03323323 C48.35576359 -0.02419383 53.75262182 -0.02297709 59.14953613 -0.02732849 C59.91811707 -0.02794142 60.686698 -0.02855436 61.47856927 -0.02918586 C63.04000443 -0.03046478 64.60143957 -0.03176164 66.1628747 -0.03307623 C80.79900293 -0.04447806 95.43503089 -0.03137456 110.07114267 -0.00987476 C122.62527814 0.00799588 135.17926564 0.00489166 147.73339844 -0.0135498 C162.31771658 -0.03496354 176.90194687 -0.04337946 191.48627853 -0.03110075 C193.04191842 -0.02982657 194.59755833 -0.02856909 196.15319824 -0.02732849 C196.918571 -0.02671139 197.68394375 -0.02609429 198.47250962 -0.02545848 C203.86194358 -0.02200709 209.25132175 -0.02782938 214.64074707 -0.0372467 C221.21011967 -0.04847368 227.77930114 -0.0454121 234.34865189 -0.02412373 C237.69953978 -0.01362229 241.0498458 -0.01163394 244.40077209 -0.02272034 C248.0350781 -0.03363644 251.66848574 -0.01995792 255.30273438 0 C256.35925327 -0.00892289 257.41577217 -0.01784577 258.50430679 -0.02703905 C264.75129864 0.03958877 268.68663927 0.5799333 273.65136719 4.50793457 C277.65136719 11.50793457 277.65136719 11.50793457 277.65136719 50.50793457 C178.65136719 50.50793457 79.65136719 50.50793457 -22.34863281 50.50793457 C-22.34863281 11.50793457 -22.34863281 11.50793457 -18.34863281 4.50793457 C-12.51161091 -0.11020963 -7.2557971 -0.06127922 0 0 Z " fill="#666666" transform="translate(122.3486328125,49.4920654296875)"/>
<path d="M0 0 C0.66 0.33 1.32 0.66 2 1 C-0.64 3.64 -3.28 6.28 -6 9 C-6 6 -6 6 -3.5625 3.375 C-2.716875 2.59125 -1.87125 1.8075 -1 1 C-0.67 0.67 -0.34 0.34 0 0 Z " fill="#979797" transform="translate(108,51)"/>
</svg>
