<?xml version="1.0" encoding="UTF-8"?>
<svg data-bbox="-0.059 5.617 50.122 40.729" xmlns="http://www.w3.org/2000/svg" viewBox="0 0 50 50" width="100" height="100" data-type="shape">
    <g>
        <path d="M50.063 10.438a20.6 20.6 0 0 1-5.91 1.62 10.3 10.3 0 0 0 4.523-5.687 20.7 20.7 0 0 1-6.531 2.492 10.26 10.26 0 0 0-7.504-3.246c-5.68 0-10.286 4.602-10.286 10.281 0 .805.094 1.59.27 2.344-8.547-.43-16.121-4.523-21.195-10.746a10.24 10.24 0 0 0-1.39 5.172c0 3.566 1.812 6.715 4.573 8.562a10.3 10.3 0 0 1-4.66-1.289v.13c0 4.984 3.547 9.136 8.246 10.085a10.3 10.3 0 0 1-4.644.172c1.312 4.082 5.11 7.063 9.605 7.145A20.6 20.6 0 0 1 2.39 41.87q-1.247 0-2.449-.144a29.05 29.05 0 0 0 15.762 4.62c18.914 0 29.258-15.667 29.258-29.253 0-.446-.012-.895-.027-1.332a20.9 20.9 0 0 0 5.129-5.324"/>
    </g>
</svg>
